# xmcd CD database file
#
# Track frame offsets:
#	150
#	17621
#	34632
#	47824
#	65267
#	78396
#	97789
#	115151
#	128900
#	138555
#	153974
#	168832
#
# Disc length: 2382 seconds
#
# Revision: 0
# Processed by: cddbd v1.5.2PL0 Copyright (c) Steve Scherf et al.
# Submitted via: CDex 1.70beta2
#
DISCID=8c094c0c
DTITLE=Blues Kings - Big Road Blues
DYEAR=2006
DGENRE=Blues
TTITLE0=Blues Kings - Automobile
TTITLE1=Blues Kings - Be My Baby
TTITLE2=Blues Kings - Call Girl
TTITLE3=Blues Kings - Come Home
TTITLE4=Blues Kings - Ford Fairlane
TTITLE5=Blues Kings - Say Hi
TTITLE6=Blues Kings - I'm in Love
TTITLE7=Blues Kings - No Dime
TTITLE8=Blues Kings - Father Brown
TTITLE9=Blues Kings - Down the Line
TTITLE10=Blues Kings - Hangin' Song
TTITLE11=Blues Kings - Playground
EXTD=YEAR: 2006
EXTT0=
EXTT1=
EXTT2=
EXTT3=
EXTT4=
EXTT5=
EXTT6=
EXTT7=
EXTT8=
EXTT9=
EXTT10=
EXTT11=
PLAYORDER=
